<?xml version="1.0" standalone="no"?>
<!DOCTYPE svg PUBLIC "-//W3C//DTD SVG 20010904//EN"
 "http://www.w3.org/TR/2001/REC-SVG-20010904/DTD/svg10.dtd">
<svg version="1.0" xmlns="http://www.w3.org/2000/svg"
 width="700.000000pt" height="700.000000pt" viewBox="0 0 700.000000 700.000000"
 preserveAspectRatio="xMidYMid meet">
<metadata>
Created by potrace 1.11, written by Peter Selinger 2001-2013
</metadata>
<g transform="translate(0.000000,700.000000) scale(0.100000,-0.100000)"
fill="#000000" stroke="none">
<path d="M3377 6390 c-65 -39 -122 -70 -128 -70 -5 0 -9 -4 -9 -10 0 -5 -4
-10 -9 -10 -5 0 -92 -48 -193 -106 -101 -59 -280 -163 -398 -232 -118 -68
-255 -148 -305 -177 -49 -29 -317 -184 -595 -345 -278 -160 -530 -307 -560
-325 -30 -18 -71 -42 -90 -52 -19 -11 -61 -35 -92 -52 l-58 -33 0 -131 c-1
-188 -1 -2756 0 -2794 0 -28 6 -35 53 -61 28 -16 167 -95 307 -177 140 -81
269 -156 285 -165 17 -10 154 -89 305 -177 243 -141 559 -324 645 -373 17 -10
167 -97 335 -195 168 -98 325 -189 350 -203 25 -14 57 -33 72 -43 14 -11 28
-19 31 -19 3 0 41 -21 84 -47 43 -25 85 -46 93 -45 14 0 894 506 1275 731 38
23 75 39 81 37 10 -4 893 -551 1049 -650 28 -18 72 -46 100 -64 27 -17 51 -29
53 -27 3 3 5 1420 1 1440 -1 6 0 14 1 20 5 28 0 2923 -6 2938 -3 9 -10 17 -15
17 -5 0 -32 15 -61 34 -29 18 -73 44 -98 57 -25 14 -56 32 -70 40 -20 13 -594
346 -705 409 -16 9 -111 64 -210 122 -99 57 -200 116 -225 130 -25 14 -295
170 -600 348 -305 177 -559 324 -565 326 -5 2 -63 -28 -128 -66z"/>
</g>
</svg>
